<svg width="23" height="23" viewBox="0 0 23 23" fill="none" xmlns="http://www.w3.org/2000/svg">
<path d="M11.8125 5.25256C8.2627 5.25256 5.37695 8.13831 5.37207 11.6881C5.37207 12.9039 5.71387 14.0905 6.3584 15.111L6.50977 15.3551L5.86035 17.7281L8.29688 17.0885L8.53125 17.2301C9.51758 17.816 10.6504 18.1285 11.8076 18.1285H11.8125C15.3574 18.1285 18.3213 15.2428 18.3213 11.693C18.3213 9.97424 17.5791 8.35803 16.3633 7.14221C15.1426 5.92151 13.5312 5.25256 11.8125 5.25256ZM15.5967 14.4518C15.4355 14.9059 14.6641 15.316 14.293 15.3698C13.6777 15.4625 13.1992 15.4137 11.9736 14.8864C10.0352 14.0465 8.76563 12.0934 8.66797 11.9664C8.57031 11.8395 7.87695 10.9166 7.87695 9.96448C7.87695 9.01233 8.375 8.54358 8.55566 8.34827C8.73145 8.15295 8.94141 8.10413 9.07324 8.10413C9.2002 8.10413 9.33203 8.10413 9.44434 8.10901C9.56152 8.11389 9.72266 8.06506 9.87891 8.44104C10.04 8.82678 10.4258 9.77893 10.4746 9.87659C10.5234 9.97424 10.5576 10.0865 10.4893 10.2135C10.1182 10.9557 9.72266 10.9264 9.92285 11.2682C10.6699 12.5524 11.417 12.9967 12.5547 13.568C12.75 13.6656 12.8623 13.651 12.9746 13.5192C13.0869 13.3922 13.458 12.9528 13.585 12.7623C13.7119 12.567 13.8438 12.6012 14.0195 12.6647C14.1953 12.7281 15.1475 13.1969 15.3428 13.2946C15.5381 13.3922 15.665 13.441 15.7139 13.5192C15.7578 13.6119 15.7578 14.0026 15.5967 14.4518ZM20.4062 0.81897H3.21875C1.9248 0.81897 0.875 1.86877 0.875 3.16272V20.3502C0.875 21.6442 1.9248 22.694 3.21875 22.694H20.4062C21.7002 22.694 22.75 21.6442 22.75 20.3502V3.16272C22.75 1.86877 21.7002 0.81897 20.4062 0.81897ZM11.8076 19.4323C10.5088 19.4323 9.23438 19.1051 8.10645 18.4899L4 19.569L5.09863 15.5553C4.41992 14.3834 4.06348 13.0504 4.06348 11.6832C4.06836 7.41565 7.54004 3.94397 11.8076 3.94397C13.8779 3.94397 15.8213 4.74963 17.2861 6.21448C18.7461 7.67932 19.625 9.62268 19.625 11.693C19.625 15.9606 16.0752 19.4323 11.8076 19.4323Z" fill="black"/>
</svg>
