<svg width="23" height="23" viewBox="0 0 23 23" fill="none" xmlns="http://www.w3.org/2000/svg">
<path d="M20.2812 0.81897H3.09375C2.47215 0.81897 1.87601 1.0659 1.43647 1.50544C0.99693 1.94498 0.75 2.54112 0.75 3.16272L0.75 20.3502C0.75 20.9718 0.99693 21.568 1.43647 22.0075C1.87601 22.447 2.47215 22.694 3.09375 22.694H9.79541V15.257H6.71924V11.7565H9.79541V9.0885C9.79541 6.05383 11.6021 4.37756 14.3691 4.37756C15.6943 4.37756 17.0801 4.61389 17.0801 4.61389V7.59241H15.5532C14.0488 7.59241 13.5796 8.526 13.5796 9.48352V11.7565H16.938L16.4009 15.257H13.5796V22.694H20.2812C20.9029 22.694 21.499 22.447 21.9385 22.0075C22.3781 21.568 22.625 20.9718 22.625 20.3502V3.16272C22.625 2.54112 22.3781 1.94498 21.9385 1.50544C21.499 1.0659 20.9029 0.81897 20.2812 0.81897Z" fill="black"/>
</svg>
