<svg width="23" height="23" viewBox="0 0 23 23" fill="none" xmlns="http://www.w3.org/2000/svg">
<path d="M20.9375 0.81897H2.18262C1.32324 0.81897 0.625 1.52698 0.625 2.39612V21.1168C0.625 21.986 1.32324 22.694 2.18262 22.694H20.9375C21.7969 22.694 22.5 21.986 22.5 21.1168V2.39612C22.5 1.52698 21.7969 0.81897 20.9375 0.81897ZM7.23633 19.569H3.99414V9.12952H7.24121V19.569H7.23633ZM5.61523 7.70374C4.5752 7.70374 3.73535 6.85901 3.73535 5.82385C3.73535 4.7887 4.5752 3.94397 5.61523 3.94397C6.65039 3.94397 7.49512 4.7887 7.49512 5.82385C7.49512 6.86389 6.65527 7.70374 5.61523 7.70374ZM19.3896 19.569H16.1475V14.4908C16.1475 13.2799 16.123 11.7223 14.4629 11.7223C12.7734 11.7223 12.5146 13.0407 12.5146 14.403V19.569H9.27246V9.12952H12.3828V10.5553H12.4268C12.8613 9.73499 13.9209 8.87073 15.498 8.87073C18.7793 8.87073 19.3896 11.0338 19.3896 13.8463V19.569Z" fill="black"/>
</svg>
